# xmcd
#
# Track frame offsets:
#	150
#	10515
#	15403
#
# Disc length: 331 seconds
#
# Revision: 1
# Processed by: cddbd v1.4PL0 Copyright (c) Steve Scherf et al.
# Submitted via: EasyCDDAExtractor 5.0.7
#
DISCID=0e014903
DTITLE=Youth of today
DYEAR=1990
DGENRE=
TTITLE0=Disengage
TTITLE1=Modern love story
TTITLE2=Envy
EXTD=
EXTT0=
EXTT1=
EXTT2=
PLAYORDER=
